# xmcd
#
# Track frame offsets: 
#        150
#        18069
#        33118
#        49770
#        64396
#        78917
#        92005
#        106415
#        121030
#        144771
#        158519
#        177782
#        192802
#
# Disc length: 2788 seconds
#
# Revision: 0
# Processed by: cddbd v1.5.1PL2 Copyright (c) Steve Scherf et al.
# Submitted via: ExactAudioCopy v0.95a5
#
DISCID=8f0ae20d
DTITLE=De Simone, Martinez and Moneta - Old, New and Far
DYEAR=2006
DGENRE=Oldies
TTITLE0=Coo-Coo Bird
TTITLE1=New Soldier's Joy
TTITLE2=Angeline The Baker
TTITLE3=Elf Dance
TTITLE4=Keep On The Sunny Side
TTITLE5=Sally Anne
TTITLE6=Liberty
TTITLE7=Bonaparte's Medley
TTITLE8=Irish Famine Song/Morrison's
TTITLE9=Little Sadie
TTITLE10=Shady Grove
TTITLE11=Norwegian Wood
TTITLE12=Music Tree
EXTD=
EXTT0=
EXTT1=
EXTT2=
EXTT3=
EXTT4=
EXTT5=
EXTT6=
EXTT7=
EXTT8=
EXTT9=
EXTT10=
EXTT11=
EXTT12=
PLAYORDER=
